<?xml version="1.0" encoding="utf-8"?>
<!-- Generator: Adobe Illustrator 25.0.1, SVG Export Plug-In . SVG Version: 6.00 Build 0)  -->
<svg version="1.1" id="图层_1" xmlns="http://www.w3.org/2000/svg" xmlns:xlink="http://www.w3.org/1999/xlink" x="0px" y="0px"
	 viewBox="0 0 800 377" style="enable-background:new 0 0 800 377;" xml:space="preserve">
<style type="text/css">
	.st0{fill:#7800F4;}
	.st1{fill:#040000;}
	.st2{fill:url(#SVGID_1_);}
	.st3{opacity:0.2;}
	.st4{fill:#533E94;}
</style>
<g>
	<g>
		<path class="st0" d="M437.3,296.5h-8.8l-38.7-50.6v50.6h-10.9v-71.3h8.4l39.1,51v-51h10.9V296.5z"/>
		<path class="st0" d="M503.8,296.5h-48.3v-50.2h48.3v28.4h-38.7v13h38.7V296.5z M494.2,265.8v-10.3h-29.1v10.3H494.2z"/>
		<path class="st0" d="M514.4,246.3h7.7v-11.9h9.6v11.9h19.5v9.2h-19.5v32.2h19.2v8.8H522v-41h-7.7V246.3z"/>
		<path class="st0" d="M625.5,296.5H565v-50.2h9.2v41.4h16.1v-41.4h9.6v41.4h16.1v-41.4h9.6V296.5z"/>
		<path class="st0" d="M688.4,296.5H642v-50.2h46.4V296.5z M678.8,287.7v-32.2h-27.2v32.2H678.8z"/>
		<path class="st0" d="M737.8,255.5h-22.6v41h-10v-50.2h32.6V255.5z"/>
		<path class="st0" d="M796.7,296.5h-11.5l-16.9-22.2h-8.8v22.2h-10v-61.3h10v29.5h9.2l15.3-18.4h11.1l-18.8,23L796.7,296.5z"/>
	</g>
	<g>
		<polygon class="st1" points="431.1,173.9 398.2,173.9 398.2,103.4 376.3,103.4 376.3,194.2 452.3,194.2 452.3,103.4 431.1,103.4 
					"/>
		<path class="st1" d="M470.2,206.5h20.6v-12.3h43.7v-66.5h-64.3V206.5z M514.4,147v28h-23.5v-28H514.4z"/>
		<polygon class="st1" points="571.9,114 552.2,114 552.2,127.7 543.3,127.7 543.3,147 552.2,147 552.2,194.2 594,194.2 594,175.4 
			571.9,175.4 571.9,147 594.4,147 594.4,127.7 571.9,127.7 		"/>
		<polygon class="st1" points="604.1,146.1 612.9,146.1 612.9,194.2 633.6,194.2 633.6,127.7 604.1,127.7 		"/>
		<polygon class="st1" points="654.3,194.2 716.4,194.2 716.4,175.4 673.6,175.4 673.6,146.6 716.4,146.6 716.4,127.7 654.3,127.7 
					"/>
		<polygon class="st1" points="771.7,158.7 797,127.7 773,127.7 755.4,148.9 751.1,148.9 751.1,114.9 731,114.9 731,194.2 
			751.1,194.2 751.1,168.6 754.8,168.6 774.2,194.2 798.3,194.2 		"/>
	</g>
	<linearGradient id="SVGID_1_" gradientUnits="userSpaceOnUse" x1="149.666" y1="150.866" x2="149.666" y2="371.4029">
		<stop  offset="0" style="stop-color:#040000"/>
		<stop  offset="1" style="stop-color:#322951"/>
	</linearGradient>
	<path class="st2" d="M157.1,377.1l-79.3-82l-28.2,27.3l-37.2-38.4l158-152.8l116.4,120.4L157.1,377.1z M116.2,258l42.1,43.6
		l53-51.2l-42.1-43.6L116.2,258z"/>
	<g class="st3">
		<polygon class="st4" points="230.2,92.3 127.3,191.8 85.2,148.3 174.5,61.9 97.6,61.9 9.6,147 126,267.4 267.4,130.8 		"/>
		<polygon class="st4" points="182.8,43.2 150.9,10.3 116.9,43.2 		"/>
	</g>
	<g>
		<polygon class="st0" points="220.7,82.8 117.7,182.3 75.6,138.7 164.9,52.3 88,52.3 0,137.4 116.5,257.9 257.8,121.2 		"/>
		<polygon class="st0" points="173.2,33.7 141.4,0.8 107.3,33.7 		"/>
	</g>
	<polygon class="st0" points="603.3,115.6 619.2,99.6 635.2,115.6 	"/>
</g>
</svg>
